<svg xmlns="http://www.w3.org/2000/svg" width="480" height="174" viewBox="0 0 480 174" role="img" aria-label="Most used languages">
<style>text{font-family:-apple-system,BlinkMacSystemFont,Segoe UI,Helvetica,Arial,sans-serif}</style>
<text x="0" y="16" font-size="14" font-weight="600" fill="#c9d1d9">Most used languages</text>
<text x="480" y="16" font-size="12" text-anchor="end" fill="#8b949e">23 languages</text>
<clipPath id="bar"><rect x="0" y="28" width="480" height="8" rx="4"/></clipPath>
<rect x="0" y="28" width="480" height="8" rx="4" fill="#21262d"/>
<g clip-path="url(#bar)">
<rect x="0.00" y="28" width="239.01" height="8" fill="#00ADD8"/>
<rect x="239.01" y="28" width="125.78" height="8" fill="#3572A5"/>
<rect x="364.78" y="28" width="58.95" height="8" fill="#3178c6"/>
<rect x="423.74" y="28" width="23.46" height="8" fill="#89e051"/>
<rect x="447.20" y="28" width="12.66" height="8" fill="#00B4AB"/>
<rect x="459.86" y="28" width="9.22" height="8" fill="#f1e05a"/>
<rect x="469.08" y="28" width="3.85" height="8" fill="#f34b7d"/>
<rect x="472.93" y="28" width="3.01" height="8" fill="#DA3434"/>
<rect x="475.94" y="28" width="2.83" height="8" fill="#555555"/>
<rect x="478.76" y="28" width="1.24" height="8" fill="#012456"/>
</g>
<circle cx="5" cy="56" r="5" fill="#00ADD8"/>
<text x="16" y="60" font-size="13" fill="#c9d1d9">Go</text>
<text x="230" y="60" font-size="12" text-anchor="end" fill="#8b949e">49.8%</text>
<circle cx="245" cy="56" r="5" fill="#3572A5"/>
<text x="256" y="60" font-size="13" fill="#c9d1d9">Python</text>
<text x="470" y="60" font-size="12" text-anchor="end" fill="#8b949e">26.2%</text>
<circle cx="5" cy="78" r="5" fill="#3178c6"/>
<text x="16" y="82" font-size="13" fill="#c9d1d9">TypeScript</text>
<text x="230" y="82" font-size="12" text-anchor="end" fill="#8b949e">12.3%</text>
<circle cx="245" cy="78" r="5" fill="#89e051"/>
<text x="256" y="82" font-size="13" fill="#c9d1d9">Shell</text>
<text x="470" y="82" font-size="12" text-anchor="end" fill="#8b949e">4.9%</text>
<circle cx="5" cy="100" r="5" fill="#00B4AB"/>
<text x="16" y="104" font-size="13" fill="#c9d1d9">Dart</text>
<text x="230" y="104" font-size="12" text-anchor="end" fill="#8b949e">2.6%</text>
<circle cx="245" cy="100" r="5" fill="#f1e05a"/>
<text x="256" y="104" font-size="13" fill="#c9d1d9">JavaScript</text>
<text x="470" y="104" font-size="12" text-anchor="end" fill="#8b949e">1.9%</text>
<circle cx="5" cy="122" r="5" fill="#f34b7d"/>
<text x="16" y="126" font-size="13" fill="#c9d1d9">C++</text>
<text x="230" y="126" font-size="12" text-anchor="end" fill="#8b949e">0.8%</text>
<circle cx="245" cy="122" r="5" fill="#DA3434"/>
<text x="256" y="126" font-size="13" fill="#c9d1d9">CMake</text>
<text x="470" y="126" font-size="12" text-anchor="end" fill="#8b949e">0.6%</text>
<circle cx="5" cy="144" r="5" fill="#555555"/>
<text x="16" y="148" font-size="13" fill="#c9d1d9">C</text>
<text x="230" y="148" font-size="12" text-anchor="end" fill="#8b949e">0.6%</text>
<circle cx="245" cy="144" r="5" fill="#012456"/>
<text x="256" y="148" font-size="13" fill="#c9d1d9">PowerShell</text>
<text x="470" y="148" font-size="12" text-anchor="end" fill="#8b949e">0.3%</text>
</svg>
